<svg id="visual" viewBox="0 0 900 600" width="900" height="600" xmlns="http://www.w3.org/2000/svg" xmlns:xlink="http://www.w3.org/1999/xlink" version="1.1"><rect x="0" y="0" width="900" height="600" fill="#fff"></rect><path d="M0 411L13.7 432.5C27.3 454 54.7 497 82 507.2C109.3 517.3 136.7 494.7 163.8 478.7C191 462.7 218 453.3 245.2 449.3C272.3 445.3 299.7 446.7 327 457.3C354.3 468 381.7 488 409 484.2C436.3 480.3 463.7 452.7 491 457.5C518.3 462.3 545.7 499.7 573 513C600.3 526.3 627.7 515.7 654.8 498.2C682 480.7 709 456.3 736.2 453.5C763.3 450.7 790.7 469.3 818 480.2C845.3 491 872.7 494 886.3 495.5L900 497L900 601L886.3 601C872.7 601 845.3 601 818 601C790.7 601 763.3 601 736.2 601C709 601 682 601 654.8 601C627.7 601 600.3 601 573 601C545.7 601 518.3 601 491 601C463.7 601 436.3 601 409 601C381.7 601 354.3 601 327 601C299.7 601 272.3 601 245.2 601C218 601 191 601 163.8 601C136.7 601 109.3 601 82 601C54.7 601 27.3 601 13.7 601L0 601Z" fill="#4b545c" stroke-linecap="round" stroke-linejoin="miter"></path></svg>